<?xml version="1.0" encoding="UTF-8"?>
<svg id="Layer_2" data-name="Layer 2" xmlns="http://www.w3.org/2000/svg" viewBox="0 0 296.41 350.55">
  <defs>
    <style>
      .cls-1 {
        fill: #fff;
      }
    </style>
  </defs>
  <g id="Favicon_This_wit" data-name="Favicon This wit">
    <g>
      <polygon class="cls-1" points="170.2 249.46 169.99 189.61 .52 90.06 .44 59.99 195.14 174.47 195.36 234.43 170.2 249.46"/>
      <polygon class="cls-1" points="220.69 219.33 220.48 159.47 .07 29.8 0 0 245.63 144.33 245.85 204.29 220.69 219.33"/>
      <g>
        <polygon class="cls-1" points="126.56 74.34 101.3 59.48 50.8 89.64 51.54 320.4 76.79 305.32 76.15 104.43 126.56 74.34"/>
        <polygon class="cls-1" points="75.89 44.51 50.64 29.66 .13 59.81 1.04 350.55 26.29 335.47 25.48 74.61 75.89 44.51"/>
      </g>
      <line class="cls-1" x1="25.25" y1="14.77" x2="12.63" y2="22.3"/>
      <polygon class="cls-1" points=".57 200.77 51.14 230.53 220.38 129.58 245.72 144.49 51.32 260.46 .67 230.65 .57 200.77"/>
      <polygon class="cls-1" points=".76 260.74 51.28 290.47 271.07 159.41 296.41 174.32 51.46 320.4 .85 290.62 .76 260.74"/>
      <polyline class="cls-1" points="271.1 189.17 271.05 174.18 270.99 159.19"/>
    </g>
  </g>
</svg>