<?xml version="1.0" encoding="UTF-8"?>
<svg id="Layer_2" data-name="Layer 2" xmlns="http://www.w3.org/2000/svg" viewBox="0 0 675.04 350.68">
  <defs>
    <style>
      .cls-1 {
        fill: #fff;
      }
    </style>
  </defs>
  <g id="This_V1" data-name="This V1">
    <g>
      <g>
        <polygon class="cls-1" points="548.84 249.59 548.62 189.74 379.16 90.19 379.07 60.12 573.78 174.6 573.99 234.56 548.84 249.59"/>
        <polygon class="cls-1" points="599.33 219.46 599.11 159.6 378.7 29.94 378.63 .13 624.27 144.46 624.48 204.42 599.33 219.46"/>
        <g>
          <polygon class="cls-1" points="505.19 74.47 479.93 59.62 429.43 89.77 430.18 320.53 455.43 305.45 454.78 104.57 505.19 74.47"/>
          <polygon class="cls-1" points="454.53 44.64 429.27 29.79 378.77 59.94 379.68 350.68 404.93 335.61 404.11 74.74 454.53 44.64"/>
        </g>
        <polygon class="cls-1" points="391.26 22.44 378.64 29.97 378.59 14.99 378.54 0 391.21 7.45 403.88 14.9 391.26 22.44"/>
        <polygon class="cls-1" points="379.21 200.9 429.78 230.66 599.02 129.71 624.36 144.63 429.95 260.59 379.3 230.78 379.21 200.9"/>
        <polygon class="cls-1" points="379.39 260.87 429.92 290.61 649.7 159.54 675.04 174.46 430.09 320.53 379.49 290.75 379.39 260.87"/>
        <polygon class="cls-1" points="392.19 328.17 404.86 335.62 392.23 343.15 379.68 350.68 379.57 335.7 379.58 320.74 392.19 328.17"/>
        <polygon class="cls-1" points="458.94 137.06 548.62 189.74 548.84 249.59 573.99 234.56 573.78 174.6 474.16 116.08 458.94 137.06"/>
        <polygon class="cls-1" points="649.68 174.31 649.63 159.33 662.3 166.77 674.97 174.22 662.35 181.76 649.73 189.3 649.68 174.31"/>
        <polygon class="cls-1" points="489.38 95.12 599.11 159.6 599.33 219.46 624.48 204.42 624.27 144.46 505.19 74.47 489.38 95.12"/>
      </g>
      <path class="cls-1" d="m42.83,233.8h-13.73c-18.64,0-29.1-10.74-29.1-29.03v-88.42h16.35v33.56h26.81v15.1h-26.81v39.76c0,7.55,5.56,13.26,12.92,13.26h13.57v15.77Z"/>
      <path class="cls-1" d="m131.69,184.98v33.05h5.72v15.77h-22.24v-48.83c0-10.74-8.5-19.46-18.96-19.46s-18.96,8.72-18.96,19.46v33.05h5.72v15.77h-27.96v-15.77h5.72v-85.91h-5.72v-15.77h22.23v38.93c5.23-4.2,11.77-6.71,18.96-6.71,19.62,0,35.48,16.28,35.48,36.41Z"/>
      <path class="cls-1" d="m188.59,249.05h-31.23V100.11h31.23v15.77h-16.02v117.4h16.02v15.77Z"/>
      <path class="cls-1" d="m204.12,218.03h5.72v-52.35h-5.72v-15.77h22.07v68.12h5.72v15.77h-27.79v-15.77Zm3.76-85.57c0-5.37,4.74-10.24,9.97-10.24,6.05,0,10.3,4.87,10.3,10.24,0,6.04-4.25,10.23-10.3,10.23-5.23,0-9.97-4.2-9.97-10.23Z"/>
      <path class="cls-1" d="m240.66,226.59l6.38-14.26c4.74,3.19,13.57,6.54,20.27,6.54,8.17,0,11.61-4.87,11.61-9.56,0-5.54-4.58-8.56-16.19-13.42-8.01-3.36-21.42-8.89-21.42-23.99,0-13.93,11.61-23.32,27.3-23.32,8.99,0,16.51,3.19,23.54,7.38l-7.19,12.42c-4.91-2.85-9.97-5.54-15.7-5.54-6.87,0-11.94,3.52-11.94,8.39,0,5.2,5.4,7.21,14.22,10.74,12.92,4.87,24.52,12.75,24.52,27.35s-11.61,25.84-28.28,25.84c-10.14,0-20.27-4.19-27.14-8.56Z"/>
      <path class="cls-1" d="m303.59,249.05v-15.77h15.86v-117.4h-15.86v-15.77h31.23v148.94h-31.23Z"/>
    </g>
  </g>
</svg>